/* XPM */
static char * icewm_xpm[] = {
"59 18 158 2",
"  	c None",
". 	c #4AA1FF",
"+ 	c #499BFA",
"@ 	c #4795F4",
"# 	c #458FEE",
"$ 	c #4790EE",
"% 	c #98C1F5",
"& 	c #4388E9",
"* 	c #DFEBFB",
"= 	c #F9FBFE",
"- 	c #2F57A8",
"; 	c #4182E3",
"> 	c #FFFFFF",
", 	c #F7F8FA",
"' 	c #18205E",
") 	c #3F7CDD",
"! 	c #5E91E2",
"~ 	c #CEDDF6",
"{ 	c #F7F9FD",
"] 	c #FAFBFE",
"^ 	c #D6E3F7",
"/ 	c #6998E4",
"( 	c #4580DE",
"_ 	c #B9CFF2",
": 	c #F4F7FD",
"< 	c #DCE7F8",
"[ 	c #6A99E4",
"} 	c #DDE8F9",
"| 	c #B1CAF1",
"1 	c #A8C4EF",
"2 	c #3D76D7",
"3 	c #DDE7F8",
"4 	c #FDFDFE",
"5 	c #CACEDF",
"6 	c #C4C6D6",
"7 	c #FDFDFD",
"8 	c #EDEEF4",
"9 	c #3B68BD",
"0 	c #C1D3F2",
"a 	c #B5B7CB",
"b 	c #171D5A",
"c 	c #A1BDEB",
"d 	c #DADEEB",
"e 	c #D1D3DF",
"f 	c #DDDFE9",
"g 	c #3461BA",
"h 	c #EBECF2",
"i 	c #CBD1E3",
"j 	c #616790",
"k 	c #BBC4DC",
"l 	c #3B6FD2",
"m 	c #E7E9F0",
"n 	c #34396E",
"o 	c #1F3076",
"p 	c #6975A4",
"q 	c #656991",
"r 	c #222B69",
"s 	c #396BCD",
"t 	c #F7F7F9",
"u 	c #22367F",
"v 	c #6C93DD",
"w 	c #8F9DC6",
"x 	c #232963",
"y 	c #233071",
"z 	c #FBFBFC",
"A 	c #1C296B",
"B 	c #515583",
"C 	c #1A2464",
"D 	c #2F54AB",
"E 	c #3969CC",
"F 	c #A3B9E7",
"G 	c #DFE5F4",
"H 	c #AABFE9",
"I 	c #516DB5",
"J 	c #2D4FA5",
"K 	c #3766C7",
"L 	c #181F5D",
"M 	c #3A6ACC",
"N 	c #7991CB",
"O 	c #B4BEDA",
"P 	c #EDF1F9",
"Q 	c #171E5B",
"R 	c #1E245F",
"S 	c #3055AF",
"T 	c #3763C6",
"U 	c #5567A5",
"V 	c #9597B3",
"W 	c #D1D2DE",
"X 	c #FBFBFD",
"Y 	c #5C79C3",
"Z 	c #B1C2E9",
"` 	c #AEBADA",
" .	c #57669E",
"..	c #F9F9FB",
"+.	c #3560C2",
"@.	c #355CC1",
"#.	c #486BC6",
"$.	c #AFBEE6",
"%.	c #B1C0E7",
"&.	c #2E4EAA",
"*.	c #243989",
"=.	c #8C93B5",
"-.	c #8487A8",
";.	c #2E4EAB",
">.	c #171E5D",
",.	c #F7F8FC",
"'.	c #3C4B8F",
").	c #171D5B",
"!.	c #3356BB",
"~.	c #3457BB",
"{.	c #DBE0F1",
"].	c #D8DBE8",
"^.	c #C6D0EC",
"/.	c #F6F8FC",
"(.	c #4D5280",
"_.	c #253B8D",
":.	c #F0F3FA",
"<.	c #CACBD9",
"[.	c #395BBD",
"}.	c #E5E9F6",
"|.	c #D3D4DF",
"1.	c #EBEEF8",
"2.	c #202560",
"3.	c #3150B5",
"4.	c #4561BB",
"5.	c #B3B6CD",
"6.	c #F2F2F5",
"7.	c #D9DBE7",
"8.	c #6B7097",
"9.	c #2A439F",
"0.	c #90A1D7",
"a.	c #F5F6F8",
"b.	c #E7E7EE",
"c.	c #2D3879",
"d.	c #677DC6",
"e.	c #E5E6EE",
"f.	c #8D93B5",
"g.	c #B2B5CB",
"h.	c #4F5482",
"i.	c #2F4DB1",
"j.	c #171E5C",
"k.	c #304EB2",
"l.	c #2F4AAF",
"m.	c #2C45A6",
"n.	c #1E2B76",
"o.	c #181F5E",
"p.	c #1A2468",
"q.	c #263990",
"r.	c #233587",
"s.	c #192162",
"t.	c #2D46A8",
"u.	c #283D98",
"v.	c #192163",
"w.	c #223384",
"x.	c #293F9A",
"y.	c #2D43AA",
"z.	c #2B3DA4",
"A.	c #29379E",
". . . . . . . . . . . . . . . . . . . . . . . . . . . . . . . . . . . . . . . . . . . . . . . . . . . . . . . . . . . ",
"+ + + + + + + + + + + + + + + + + + + + + + + + + + + + + + + + + + + + + + + + + + + + + + + + + + + + + + + + + + + ",
"@ @ @ @ @ @ @ @ @ @ @ @ @ @ @ @ @ @ @ @ @ @ @ @ @ @ @ @ @ @ @ @ @ @ @ @ @ @ @ @ @ @ @ @ @ @ @ @ @ @ @ @ @ @ @ @ @ @ @ ",
"# # # # # # # # # # # # # # # # # # # # # $ % # # # # # # # # # # # # # # # # $ % # # # # # # # # # # # # # # # # # # ",
"& & & & & & & & & & & & & & & & & & & & & * = - & & & & & & & & & & & & & & & * = - & & & & & & & & & & & & & & & & & ",
"; ; ; ; ; ; ; ; ; ; ; ; ; ; ; ; ; ; ; ; ; > , ' ; ; ; ; ; ; ; ; ; ; ; ; ; ; ; > , ' ; ; ; ; ; ; ; ; ; ; ; ; ; ; ; ; ; ",
") ) ) ) ) ) ) ) ) ) ) ) ) ! ~ { ] ^ / ) > > > > ) ( _ : ] < [ ) ) > } | ] 1 > > > > ) ) ) ) ) ) ) ) ) ) ) ) ) ) ) ) ) ",
"2 2 2 2 2 2 2 2 2 2 2 2 2 3 4 5 6 7 8 9 0 > 7 a b c > d e > f g 2 > 7 h i j k > 7 a b 2 2 2 2 2 2 2 2 2 2 2 2 2 2 2 2 ",
"l l l l l l l l l l l l l { m n o p q r s > t b u v w x y 7 z A l > > B C o D > t b u l l l l l l l l l l l l l l l l ",
"E E E E E E E E E E E E E F > > G H I J K > t L E M N O P > > Q E > > R S E E > t L E E E E E E E E E E E E E E E E E ",
"T T T T T T T T T T T T T T U V W 7 X Y T > t L T Z > `  ...> b T > z b +.T T > t L T T T T T T T T T T T T T T T T T ",
"@.@.@.@.@.@.@.@.@.@.@.@.#.$.%.&.*.=.> -.;.4 ..>.@.,.4 R '.> > b @.> t ).@.@.@.4 ..>.@.@.@.@.@.@.@.@.@.@.@.@.@.@.@.@.@.",
"!.!.!.!.!.!.!.!.!.!.!.!.~.{.> ].^./.> (._.:.> <.[.}.> |.1.4 > 2.!.> t >.!.!.!.:.> <.[.!.!.!.!.!.!.!.!.!.!.!.!.!.!.!.!.",
"3.3.3.3.3.3.3.3.3.3.3.3.3.4.5.6.z 7.8.b 9.0.a.b.c.d.e.6.f.g.> h.i.> t j.3.3.3.0.a.b.c.k.3.3.3.3.3.3.3.3.3.3.3.3.3.3.3.",
"l.l.l.l.l.l.l.l.l.l.l.l.l.l.m.n.o.).p.q.l.l.r.>.s.t.u.v.o.w.n.b x.l.b j.l.l.l.l.r.>.s.t.l.l.l.l.l.l.l.l.l.l.l.l.l.l.l.",
"y.y.y.y.y.y.y.y.y.y.y.y.y.y.y.y.y.y.y.y.y.y.y.y.y.y.y.y.y.y.y.y.y.y.y.y.y.y.y.y.y.y.y.y.y.y.y.y.y.y.y.y.y.y.y.y.y.y.y.",
"z.z.z.z.z.z.z.z.z.z.z.z.z.z.z.z.z.z.z.z.z.z.z.z.z.z.z.z.z.z.z.z.z.z.z.z.z.z.z.z.z.z.z.z.z.z.z.z.z.z.z.z.z.z.z.z.z.z.z.",
"A.A.A.A.A.A.A.A.A.A.A.A.A.A.A.A.A.A.A.A.A.A.A.A.A.A.A.A.A.A.A.A.A.A.A.A.A.A.A.A.A.A.A.A.A.A.A.A.A.A.A.A.A.A.A.A.A.A.A."};
